<svg 
 xmlns="http://www.w3.org/2000/svg"
 xmlns:xlink="http://www.w3.org/1999/xlink"
 width="739.667px" height="739.667px">
<path fill-rule="evenodd"  stroke="rgb(0, 0, 0)" stroke-width="20px" stroke-linecap="butt" stroke-linejoin="miter" fill="none"
 d="M506.665,118.428 L107.593,118.428 L506.665,118.428 Z"/>
<path fill-rule="evenodd"  stroke="rgb(0, 0, 0)" stroke-width="20px" stroke-linecap="butt" stroke-linejoin="miter" fill="none"
 d="M117.907,508.914 L117.907,109.63 L117.907,508.914 Z"/>
<path fill-rule="evenodd"  stroke="rgb(0, 0, 0)" stroke-width="11.667px" stroke-linecap="round" stroke-linejoin="bevel" fill="none"
 d="M711.527,118.427 C711.527,173.785 666.859,218.661 611.759,218.661 C556.658,218.661 511.991,173.785 511.991,118.427 C511.991,63.70 556.658,18.193 611.759,18.193 C666.859,18.193 711.527,63.70 711.527,118.427 Z"/>
<path fill-rule="evenodd"  stroke="rgb(0, 0, 0)" stroke-width="11.667px" stroke-linecap="round" stroke-linejoin="bevel" fill="rgb(0, 0, 0)"
 d="M658.317,118.427 C658.317,144.261 637.472,165.203 611.759,165.203 C586.45,165.203 565.200,144.261 565.200,118.427 C565.200,92.593 586.45,71.651 611.759,71.651 C637.472,71.651 658.317,92.593 658.317,118.427 Z"/>
<path fill-rule="evenodd"  stroke="rgb(0, 0, 0)" stroke-width="11.667px" stroke-linecap="round" stroke-linejoin="bevel" fill="none"
 d="M117.907,712.171 C62.807,712.171 18.139,667.416 18.139,612.208 C18.139,557.0 62.807,512.245 117.907,512.245 C173.7,512.245 217.676,557.0 217.676,612.208 C217.676,667.416 173.7,712.171 117.907,712.171 Z"/>
<path fill-rule="evenodd"  stroke="rgb(0, 0, 0)" stroke-width="11.667px" stroke-linecap="round" stroke-linejoin="bevel" fill="rgb(0, 0, 0)"
 d="M117.907,658.857 C92.193,658.857 71.349,637.972 71.349,612.208 C71.349,586.445 92.193,565.559 117.907,565.559 C143.621,565.559 164.465,586.445 164.465,612.208 C164.465,637.972 143.621,658.857 117.907,658.857 Z"/>
</svg>