<?xml version="1.0" encoding="UTF-8"?><svg id="Layer_1" xmlns="http://www.w3.org/2000/svg" viewBox="0 0 1676 1676"><defs><style>.cls-1,.cls-2,.cls-3{fill:none;}.cls-2{stroke-width:20px;}.cls-2,.cls-3{stroke:#000;stroke-miterlimit:10;}.cls-3{stroke-width:1.1px;}</style></defs><path class="cls-2" d="M1666,838c0,457.29-370.71,828-828,828S10,1295.29,10,838c0-225.33,90.01-429.65,236.05-578.93,13.74,13.27,32.4,21.43,52.95,21.43,42.25,0,76.5-34.47,76.5-77,0-16.04-4.87-30.94-13.22-43.28C496.88,65.57,660.95,10,838,10c457.29,0,828,370.71,828,828Z"/><path class="cls-2" d="M375.58,202.75c0,42.53-34.25,77-76.5,77-20.55,0-39.21-8.16-52.95-21.43-14.52-14.01-23.55-33.73-23.55-55.57,0-42.53,34.25-77,76.5-77,26.31,0,49.52,13.37,63.28,33.72,8.35,12.34,13.22,27.24,13.22,43.28Z"/><polygon points="402.07 649.22 373.9 845.94 625.91 846.99 620.42 883.25 368.56 883.25 334.74 1119.48 299.58 1117.29 365.87 649.22 371 612.96 658.87 612.96 653.38 649.22 402.07 649.22"/><line x1="371" y1="612.96" x2="365.87" y2="649.22"/><path d="M901.45,613.24h-57.6l-222.11,503.98h35.99l64.44-144,199.29-.97,24.26,144.97h35.99l-80.27-503.98Zm-163.08,323.99l129.23-287.99,47.88,287.99h-177.12Z"/><polygon class="cls-1" points="915.5 937.22 738.38 937.22 867.61 649.23 915.5 937.22"/><path d="M1343.94,613.51c-8.79,0-168.31-.27-168.31-.27-99.62,14.56-102.11,108-102.11,108,0,0-38.51,246.99-42.48,312.83-4.65,77.18,75.81,83.15,75.81,83.15,0,0,53.04,.07,152.06,0,99.03-.07,113.04-87.83,113.04-87.83,0,0,44.5-293.91,45.6-340.06,1.54-64.54-64.83-75.81-73.62-75.81Zm36.67,91.16c-4.8,50.58-41.76,304.55-41.76,304.55,0,0-3.34,71.64-82.08,72-78.74,.35-125.99,0-125.99,0,0,0-73.31,8.37-61.93-72,11.39-80.37,40.69-287.99,40.69-287.99,0,0,1.64-62.65,69.13-72h150.41s56.32,4.87,51.53,55.44Z"/><path class="cls-3" d="M1380.61,704.67c-4.8,50.58-41.76,304.55-41.76,304.55,0,0-3.34,71.64-82.08,72-78.74,.35-125.99,0-125.99,0,0,0-73.31,8.37-61.93-72,11.39-80.37,40.69-287.99,40.69-287.99,0,0,1.64-62.65,69.13-72h150.41s56.32,4.87,51.53,55.44Z"/><polygon points="1241.65 1189.22 1277.65 1189.22 1230.85 1009.22 1194.85 1009.22 1241.65 1189.22"/></svg>