<svg 
 xmlns="http://www.w3.org/2000/svg"
 xmlns:xlink="http://www.w3.org/1999/xlink"
 width="1785.5px" height="1707.001px">
<path fill-rule="evenodd"  stroke="rgb(0, 0, 0)" stroke-width="11.667px" stroke-linecap="round" stroke-linejoin="bevel" fill="none"
 d="M1692.666,388.999 C1729.485,388.999 1759.332,418.847 1759.332,455.666 C1759.332,492.485 1729.485,522.332 1692.666,522.332 C1655.847,522.332 1625.999,492.485 1625.999,455.666 C1625.999,418.847 1655.847,388.999 1692.666,388.999 Z"/>
<path fill-rule="evenodd"  stroke="rgb(0, 0, 0)" stroke-width="16.667px" stroke-linecap="square" stroke-linejoin="miter" fill="none"
 d="M432.145,1678.85 C406.975,1662.6 382.673,1644.835 359.328,1626.697 C186.696,1492.572 51.359,1259.692 24.623,1042.971 C-8.979,770.581 65.121,515.437 258.616,304.81 C293.199,266.307 334.611,233.636 377.240,197.496 C398.758,182.764 420.283,168.27 441.801,153.295 C469.19,130.893 520.560,107.523 549.106,97.115 C571.102,87.878 593.106,78.639 615.102,69.402 C688.159,46.278 756.356,30.308 823.793,22.801 C1091.50,-6.949 1337.20,75.816 1544.685,269.267 C1578.69,300.367 1615.563,341.377 1650.435,387.923 "/>
</svg>