<?xml version="1.0" encoding="UTF-8"?><svg id="Layer_1" xmlns="http://www.w3.org/2000/svg" viewBox="0 0 850.76 723.51"><defs><style>.cls-1{stroke-linecap:round;stroke-linejoin:bevel;stroke-width:3.24px;}.cls-1,.cls-2{fill:none;stroke:#000;}.cls-3{fill:#a5bfea;}.cls-2{stroke-linecap:square;stroke-width:4.63px;}</style></defs><path class="cls-2" d="M272.79,219.58c107.71,9.03,180.12,77.8,212.57,157.51,22.92,56.3,23.13,131.21-.56,187.11-29.77,70.27-83.07,121.41-159.03,145.41-13.58,4.29-28.09,6.4-43.37,9.18-7.23,.56-14.46,1.11-21.69,1.67-9.67,1.61-25.32,.31-33.64-1.39-6.58-.83-13.16-1.67-19.74-2.5-20.8-4.59-39.44-10.09-56.72-17.79-68.37-30-116.19-84.13-139.29-159.59-3.71-12.13-7.02-27.22-8.76-43.28"/><path class="cls-1" d="M265.11,208.89c6.94,7.52,6.48,19.24-1.04,26.19-7.52,6.94-19.25,6.48-26.19-1.04-6.94-7.52-6.48-19.24,1.04-26.19,7.52-6.94,19.25-6.48,26.19,1.04Z"/><line class="cls-2" x1="847.52" y1="3.24" x2="443.21" y2="299.59"/><circle class="cls-3" cx="252.55" cy="470.39" r="217.2"/></svg>