<?xml version="1.0" encoding="UTF-8"?><svg id="Layer_1" xmlns="http://www.w3.org/2000/svg" viewBox="0 0 2004.64 2130.4"><defs><style>.cls-1,.cls-2,.cls-3,.cls-4,.cls-5,.cls-6{stroke-miterlimit:10;}.cls-1,.cls-2,.cls-3,.cls-4,.cls-6{stroke:#000;}.cls-1,.cls-2,.cls-5{fill:none;}.cls-1,.cls-6{stroke-width:19.16px;}.cls-2,.cls-3{stroke-width:17.64px;}.cls-4{stroke-width:14.64px;}.cls-5{stroke:#fff;stroke-width:13px;}</style></defs><path class="cls-1" d="M1835.32,868.82V2015.49c0,58.17-47.16,105.33-105.33,105.33H279.65c-58.17,0-105.33-47.16-105.33-105.33V868.82H1835.32Z"/><path class="cls-3" d="M1913.64,866.32H91.01c-78.07,0-111.99-96.86-50.41-143.94L951.91,25.81c29.63-22.65,71.18-22.65,100.82,0l911.32,696.57c61.57,47.07,27.65,143.94-50.42,143.94Z"/><path class="cls-6" d="M1391.32,1498.82c0,215.39-174.39,390-389.5,390s-389.5-174.61-389.5-390c0-70.87,18.88-137.33,51.88-194.6,12.13,9.17,27.24,14.6,43.62,14.6,40.04,0,72.5-32.46,72.5-72.5,0-20.37-8.4-38.78-21.94-51.95,66.68-53.54,151.33-85.55,243.44-85.55,215.11,0,389.5,174.61,389.5,390Z"/><path class="cls-1" d="M780.32,1246.32c0,40.04-32.46,72.5-72.5,72.5-16.38,0-31.49-5.43-43.62-14.6-17.54-13.22-28.88-34.24-28.88-57.9,0-40.04,32.46-72.5,72.5-72.5,19.67,0,37.5,7.84,50.56,20.55,13.54,13.17,21.94,31.58,21.94,51.95Z"/><rect class="cls-4" x="177.32" y="868.82" width="1658" height="61"/><line class="cls-2" x1="397.82" y1="2120.32" x2="397.82" y2="1498.32"/><line class="cls-2" x1="611.82" y1="1498.32" x2="388.82" y2="1498.32"/><line class="cls-2" x1="1604.82" y1="2120.32" x2="1604.82" y2="1498.32"/><line class="cls-2" x1="1390.82" y1="1498.32" x2="1613.82" y2="1498.32"/><line class="cls-2" x1="860.82" y1="99.32" x2="1100.82" y2="97.32"/><line class="cls-2" x1="784.82" y1="155.32" x2="1182.82" y2="151.32"/><line class="cls-2" x1="707.82" y1="212.32" x2="1249.82" y2="209.32"/><line class="cls-2" x1="633.78" y1="268.32" x2="1324.82" y2="268.32"/><line class="cls-2" x1="922.82" y1="49.32" x2="1043.82" y2="50.32"/><line class="cls-2" x1="563.81" y1="323.32" x2="1390.82" y2="323.32"/><line class="cls-2" x1="486.82" y1="381.32" x2="1465.82" y2="381.32"/><line class="cls-2" x1="411.82" y1="441.32" x2="1544.82" y2="441.32"/><line class="cls-2" x1="334.8" y1="498.82" x2="1608.82" y2="499.32"/><line class="cls-2" x1="264.82" y1="552.32" x2="1671.82" y2="552.32"/><line class="cls-2" x1="192.79" y1="605.82" x2="1755.85" y2="605.82"/><line class="cls-2" x1="116.82" y1="664.32" x2="1826.88" y2="664.32"/><line class="cls-2" x1="40.82" y1="722.32" x2="1872.82" y2="724.32"/><line class="cls-2" x1="1936.82" y1="783.32" x2="9.8" y2="783.32"/><line class="cls-2" x1="1544.82" y1="930.32" x2="1544.82" y2="1350.32"/><line class="cls-2" x1="474.82" y1="930.32" x2="466.82" y2="1350.32"/><circle class="cls-2" cx="1543.32" cy="1391.82" r="44.5"/><circle class="cls-2" cx="467.32" cy="1395.82" r="44.5"/><line class="cls-5" x1="163.82" y1="884.32" x2="1845.82" y2="884.32"/></svg>