<svg 
 xmlns="http://www.w3.org/2000/svg"
 xmlns:xlink="http://www.w3.org/1999/xlink"
 width="1365px" height="899px">
<path fill-rule="evenodd"  stroke="rgb(0, 0, 0)" stroke-width="20px" stroke-linecap="square" stroke-linejoin="round" fill="none"
 d="M1334.999,737.339 C1334.999,737.339 1338.999,868.218 1213.0,868.218 C1086.999,868.218 1094.999,767.72 1094.999,725.91 C1094.999,540.439 1094.999,224.264 1094.999,86.936 C1094.999,45.212 1094.0,19.998 1094.0,19.998 L20.0,19.998 L20.0,866.220 L1094.999,866.220 C1094.999,866.220 1092.999,868.218 1215.999,867.219 C1338.999,866.220 1334.999,733.342 1334.999,733.342 L1334.999,184.846 L1219.999,184.846 L1219.0,691.381 C1219.0,691.381 1219.0,342.660 1219.0,185.845 C1219.0,144.931 1219.0,88.935 1219.0,88.935 L1094.999,88.935 "/>
<path fill-rule="evenodd"  stroke="rgb(0, 0, 0)" stroke-width="20px" stroke-linecap="square" stroke-linejoin="round" fill="none"
 d="M65.999,64.999 L492.0,64.999 L492.0,359.0 L65.999,359.0 L65.999,64.999 Z"/>
<path fill-rule="evenodd"  stroke="rgb(0, 0, 0)" stroke-width="20px" stroke-linecap="square" stroke-linejoin="miter" fill="none"
 d="M550.0,98.0 L995.999,98.0 L550.0,98.0 Z"/>
<path fill-rule="evenodd"  stroke="rgb(0, 0, 0)" stroke-width="20px" stroke-linecap="square" stroke-linejoin="miter" fill="none"
 d="M550.0,164.0 L995.999,164.0 L550.0,164.0 Z"/>
<path fill-rule="evenodd"  stroke="rgb(0, 0, 0)" stroke-width="20px" stroke-linecap="square" stroke-linejoin="miter" fill="none"
 d="M550.0,230.0 L995.999,230.0 L550.0,230.0 Z"/>
<path fill-rule="evenodd"  stroke="rgb(0, 0, 0)" stroke-width="20px" stroke-linecap="square" stroke-linejoin="miter" fill="none"
 d="M550.0,298.0 L995.999,298.0 L550.0,298.0 Z"/>
<path fill-rule="evenodd"  stroke="rgb(0, 0, 0)" stroke-width="20px" stroke-linecap="square" stroke-linejoin="miter" fill="none"
 d="M550.0,372.0 L995.999,372.0 L550.0,372.0 Z"/>
<path fill-rule="evenodd"  stroke="rgb(0, 0, 0)" stroke-width="20px" stroke-linecap="square" stroke-linejoin="miter" fill="none"
 d="M65.999,464.0 L996.0,455.999 L65.999,464.0 Z"/>
<path fill-rule="evenodd"  stroke="rgb(0, 0, 0)" stroke-width="20px" stroke-linecap="square" stroke-linejoin="miter" fill="none"
 d="M65.999,554.0 L996.0,545.999 L65.999,554.0 Z"/>
<path fill-rule="evenodd"  stroke="rgb(0, 0, 0)" stroke-width="20px" stroke-linecap="square" stroke-linejoin="miter" fill="none"
 d="M65.999,646.0 L996.0,637.999 L65.999,646.0 Z"/>
<path fill-rule="evenodd"  stroke="rgb(0, 0, 0)" stroke-width="20px" stroke-linecap="square" stroke-linejoin="miter" fill="none"
 d="M65.999,732.0 L996.0,723.999 L65.999,732.0 Z"/>
<path fill-rule="evenodd"  stroke="rgb(0, 0, 0)" stroke-width="20px" stroke-linecap="square" stroke-linejoin="miter" fill="rgb(0, 0, 0)"
 d="M279.0,135.999 C320.421,135.999 354.0,169.578 354.0,211.0 C354.0,252.421 320.421,286.0 279.0,286.0 C237.578,286.0 203.999,252.421 203.999,211.0 C203.999,169.578 237.578,135.999 279.0,135.999 Z"/>
</svg>