<?xml version="1.0" encoding="UTF-8"?><svg id="Layer_1" xmlns="http://www.w3.org/2000/svg" viewBox="0 0 3871.16 3395.08"><defs><style>.cls-1{fill-rule:evenodd;}.cls-1,.cls-2,.cls-3,.cls-4,.cls-5,.cls-6{stroke:#000;stroke-miterlimit:10;}.cls-1,.cls-5{stroke-width:40px;}.cls-2{stroke-width:35.17px;}.cls-3{stroke-width:36.95px;}.cls-4,.cls-5{fill:none;}.cls-4,.cls-6{stroke-width:50px;}.cls-6{fill:#fff;}</style></defs><g><path class="cls-5" d="M417.73,2886.93c83.04,0,150.36,68.99,150.36,150.36s-67.32,150.36-150.36,150.36-148.58-67.32-148.58-150.36,65.54-150.36,148.58-150.36h0Z"/><path class="cls-1" d="M418.62,2959.65c44.18,0,80,35.82,80,80s-35.82,80-80,80-80-35.82-80-80,35.82-80,80-80Z"/><path class="cls-5" d="M172.58,2795.08H1642.58v580H172.58v-580Z"/><path class="cls-5" d="M3427.26,2889.23c-83,0-150.29,67.35-150.29,150.42s67.28,150.42,150.29,150.42,150.29-67.34,150.29-150.42-66.5-150.42-150.29-150.42Z"/><path class="cls-1" d="M3426.42,2957.26c-44.16,0-78.29,35.83-78.29,80.03s34.12,80.03,78.29,80.03,79.96-35.32,79.96-80.03-35.8-80.03-79.96-80.03Z"/><path class="cls-5" d="M3412.44,1354.52s56.55-386.7,59.97-400.16c6.4-25.16,20.86-119.7,21.01-160.06,.15-37.62-6.58-59.99-11.02-150.06-4.44-90.01,55.81-240.09,199.91-230.09,144.93,10,159.92,210.08,159.92,210.08,0,0,29.99,1110.44-19.99,1340.53-49.98,230.09-358.67,520.21-358.67,520.21v310.12h-1080.65l18.57-501.91c.92-24.76,10.41-48.43,26.87-66.95l277.61-312.59c10.77-12.13,25.8-19.65,41.98-21l94.75-7.9,239.89-428.09s84.96-232.17,249.88-172.15c163.57,59.53,43.53,246.98,41.54,250.06l-.04,.09-141.45,340.09"/><path class="cls-5" d="M3672.58,2795.08h-1470v580h1470v-580Z"/><path class="cls-5" d="M638.63,1874.73l-141.47-340.14s-123.4-190.07,41.52-250.1c164.92-60.02,249.88,172.15,249.88,172.15l239.89,428.09,86.85,7.24c21.24,1.77,40.99,11.65,55.14,27.59l273.52,307.98c15.69,17.67,24.76,40.25,25.63,63.87l18.64,503.67H407.58v-310.12S98.89,2194.85,48.91,1964.76C-1.06,1734.67,28.92,624.23,28.92,624.23c0,0,14.99-200.08,159.92-210.08,144.09-10.01,204.35,140.08,199.9,230.09-4.44,90.07-11.17,112.44-11.02,150.06,.16,40.36,14.62,134.9,21.01,160.06,3.42,13.46,59.97,400.16,59.97,400.16"/></g><g><rect class="cls-6" x="1257.58" y="498.08" width="1264" height="1264" rx="212" ry="212"/><rect class="cls-3" x="1597.5" y="837.58" width="584.18" height="585"/><circle class="cls-6" cx="1889.59" cy="1134.08" r="195"/><line class="cls-4" x1="1635.58" y1="852.08" x2="1635.58" y2="772.08"/><line class="cls-4" x1="1738.58" y1="852.08" x2="1738.58" y2="772.08"/><line class="cls-4" x1="1843.58" y1="852.08" x2="1843.58" y2="772.08"/><line class="cls-4" x1="1945.58" y1="852.08" x2="1945.58" y2="772.08"/><line class="cls-4" x1="2049.58" y1="851.08" x2="2049.58" y2="771.08"/><line class="cls-4" x1="2152.58" y1="851.08" x2="2152.58" y2="771.08"/><line class="cls-4" x1="1632.58" y1="783.08" x2="1747.58" y2="570.08"/><line class="cls-4" x1="1735.51" y1="784.32" x2="1850.51" y2="571.32"/><line class="cls-4" x1="1840.08" y1="786.08" x2="1955.08" y2="573.08"/><line class="cls-4" x1="1941.92" y1="785" x2="2056.92" y2="572"/><path class="cls-4" d="M2046.08,784.08l115-213-115,213Z"/><line class="cls-4" x1="2149.08" y1="783.08" x2="2264.08" y2="570.08"/><line class="cls-4" x1="1847.58" y1="583.08" x2="1847.58" y2="282.08"/><line class="cls-4" x1="1744.58" y1="582.08" x2="1744.58" y2="182.08"/><line class="cls-4" x1="1951.58" y1="584.08" x2="1951.58" y2="382.08"/><line class="cls-4" x1="2053.58" y1="583.08" x2="2053.58" y2="203.08"/><line class="cls-4" x1="2157.58" y1="582.08" x2="2157.58" y2="85.08"/><line class="cls-4" x1="2260.58" y1="583.08" x2="2260.58" y2="253.08"/><circle class="cls-2" cx="1744.58" cy="138.08" r="41.5"/><circle class="cls-2" cx="1845.58" cy="244.08" r="41.5"/><circle class="cls-2" cx="1951.58" cy="353.08" r="41.5"/><circle class="cls-2" cx="2053.58" cy="179.08" r="41.5"/><circle class="cls-2" cx="2156.58" cy="59.08" r="41.5"/><circle class="cls-2" cx="2261.58" cy="229.08" r="41.5"/><g><line class="cls-4" x1="2168.58" y1="866.08" x2="2248.58" y2="866.08"/><line class="cls-4" x1="2168.58" y1="969.08" x2="2248.58" y2="969.08"/><line class="cls-4" x1="2168.58" y1="1074.08" x2="2248.58" y2="1074.08"/><line class="cls-4" x1="2168.58" y1="1176.08" x2="2248.58" y2="1176.08"/><line class="cls-4" x1="2169.58" y1="1280.08" x2="2249.58" y2="1280.08"/><line class="cls-4" x1="2169.58" y1="1383.08" x2="2249.58" y2="1383.08"/><line class="cls-4" x1="2237.58" y1="863.08" x2="2450.58" y2="978.08"/><line class="cls-4" x1="2236.35" y1="966.01" x2="2449.35" y2="1081.01"/><line class="cls-4" x1="2234.58" y1="1070.58" x2="2447.58" y2="1185.58"/><line class="cls-4" x1="2235.67" y1="1172.42" x2="2448.67" y2="1287.42"/><path class="cls-4" d="M2236.58,1276.58l213,115-213-115Z"/><line class="cls-4" x1="2237.58" y1="1379.58" x2="2450.58" y2="1494.58"/><line class="cls-4" x1="2437.58" y1="1078.08" x2="2738.58" y2="1078.08"/><line class="cls-4" x1="2438.58" y1="975.08" x2="2838.58" y2="975.08"/><line class="cls-4" x1="2436.58" y1="1182.08" x2="2638.58" y2="1182.08"/><line class="cls-4" x1="2437.58" y1="1284.08" x2="2817.58" y2="1284.08"/><line class="cls-4" x1="2438.58" y1="1388.08" x2="2935.58" y2="1388.08"/><line class="cls-4" x1="2437.58" y1="1491.08" x2="2767.58" y2="1491.08"/><circle class="cls-2" cx="2882.58" cy="975.08" r="41.5"/><circle class="cls-2" cx="2776.58" cy="1076.08" r="41.5"/><circle class="cls-2" cx="2667.58" cy="1182.08" r="41.5"/><circle class="cls-2" cx="2841.58" cy="1284.08" r="41.5"/><circle class="cls-2" cx="2961.58" cy="1387.08" r="41.5"/><circle class="cls-2" cx="2791.58" cy="1492.08" r="41.5"/></g><g><line class="cls-4" x1="2148.58" y1="1421.08" x2="2148.58" y2="1501.08"/><line class="cls-4" x1="2045.58" y1="1421.08" x2="2045.58" y2="1501.08"/><line class="cls-4" x1="1940.58" y1="1421.08" x2="1940.58" y2="1501.08"/><line class="cls-4" x1="1838.58" y1="1421.08" x2="1838.58" y2="1501.08"/><line class="cls-4" x1="1734.58" y1="1422.08" x2="1734.58" y2="1502.08"/><line class="cls-4" x1="1631.58" y1="1422.08" x2="1631.58" y2="1502.08"/><line class="cls-4" x1="2151.58" y1="1490.08" x2="2036.58" y2="1703.08"/><line class="cls-4" x1="2048.65" y1="1488.85" x2="1933.65" y2="1701.85"/><line class="cls-4" x1="1944.08" y1="1487.08" x2="1829.08" y2="1700.08"/><line class="cls-4" x1="1842.24" y1="1488.17" x2="1727.24" y2="1701.17"/><path class="cls-4" d="M1738.08,1489.08l-115,213,115-213Z"/><line class="cls-4" x1="1635.08" y1="1490.08" x2="1520.08" y2="1703.08"/><line class="cls-4" x1="1936.58" y1="1690.08" x2="1936.58" y2="1991.08"/><line class="cls-4" x1="2039.58" y1="1691.08" x2="2039.58" y2="2091.08"/><line class="cls-4" x1="1832.58" y1="1689.08" x2="1832.58" y2="1891.08"/><line class="cls-4" x1="1730.58" y1="1690.08" x2="1730.58" y2="2070.08"/><line class="cls-4" x1="1626.58" y1="1691.08" x2="1626.58" y2="2188.08"/><line class="cls-4" x1="1523.58" y1="1690.08" x2="1523.58" y2="2020.08"/><circle class="cls-2" cx="2039.58" cy="2135.08" r="41.5"/><circle class="cls-2" cx="1938.58" cy="2029.08" r="41.5"/><circle class="cls-2" cx="1832.58" cy="1920.08" r="41.5"/><circle class="cls-2" cx="1730.58" cy="2094.08" r="41.5"/><circle class="cls-2" cx="1627.58" cy="2214.08" r="41.5"/><circle class="cls-2" cx="1522.58" cy="2044.08" r="41.5"/></g><g><line class="cls-4" x1="1606.58" y1="1388.08" x2="1526.58" y2="1388.08"/><line class="cls-4" x1="1606.58" y1="1285.08" x2="1526.58" y2="1285.08"/><line class="cls-4" x1="1606.58" y1="1180.08" x2="1526.58" y2="1180.08"/><line class="cls-4" x1="1606.58" y1="1078.08" x2="1526.58" y2="1078.08"/><line class="cls-4" x1="1605.58" y1="974.08" x2="1525.58" y2="974.08"/><line class="cls-4" x1="1605.58" y1="871.08" x2="1525.58" y2="871.08"/><line class="cls-4" x1="1537.58" y1="1391.08" x2="1324.58" y2="1276.08"/><line class="cls-4" x1="1538.81" y1="1288.16" x2="1325.81" y2="1173.16"/><line class="cls-4" x1="1540.58" y1="1183.58" x2="1327.58" y2="1068.58"/><line class="cls-4" x1="1539.49" y1="1081.75" x2="1326.49" y2="966.75"/><path class="cls-4" d="M1538.58,977.58l-213-115,213,115Z"/><line class="cls-4" x1="1537.58" y1="874.58" x2="1324.58" y2="759.58"/><line class="cls-4" x1="1337.58" y1="1176.08" x2="1036.58" y2="1176.08"/><line class="cls-4" x1="1336.58" y1="1279.08" x2="936.58" y2="1279.08"/><line class="cls-4" x1="1338.58" y1="1072.08" x2="1136.58" y2="1072.08"/><line class="cls-4" x1="1337.58" y1="970.08" x2="957.58" y2="970.08"/><line class="cls-4" x1="1336.58" y1="866.08" x2="839.58" y2="866.08"/><line class="cls-4" x1="1337.58" y1="763.08" x2="1007.58" y2="763.08"/><circle class="cls-2" cx="892.58" cy="1279.08" r="41.5"/><circle class="cls-2" cx="998.58" cy="1178.08" r="41.5"/><circle class="cls-2" cx="1107.58" cy="1072.08" r="41.5"/><circle class="cls-2" cx="933.58" cy="970.08" r="41.5"/><circle class="cls-2" cx="813.58" cy="867.08" r="41.5"/><circle class="cls-2" cx="983.58" cy="762.08" r="41.5"/></g></g></svg>