<?xml version="1.0" encoding="UTF-8"?><svg id="Layer_1" xmlns="http://www.w3.org/2000/svg" viewBox="0 0 3870.68 3001.52"><defs><style>.cls-1,.cls-2,.cls-3,.cls-4,.cls-5{stroke:#000;stroke-width:40px;}.cls-1,.cls-3,.cls-4,.cls-5{fill:none;}.cls-1,.cls-4{stroke-linejoin:round;}.cls-2{fill-rule:evenodd;}.cls-2,.cls-3,.cls-4,.cls-5{stroke-linecap:square;}.cls-2,.cls-5{stroke-linejoin:bevel;}</style></defs><path class="cls-5" d="M417.37,2493.52c83.04,0,150.36,68.99,150.36,150.36s-67.32,150.36-150.36,150.36-148.58-67.32-148.58-150.36,65.54-150.36,148.58-150.36Z"/><path class="cls-2" d="M418.26,2566.24c44.18,0,80,35.82,80,80s-35.82,80-80,80-80-35.82-80-80,35.82-80,80-80Z"/><path class="cls-4" d="M172.31,2401.41H1642.31v580H172.31v-580Z"/><path class="cls-5" d="M3426.9,2495.81c-83,0-150.29,67.35-150.29,150.42s67.28,150.42,150.29,150.42,150.29-67.34,150.29-150.42-66.5-150.42-150.29-150.42Z"/><path class="cls-2" d="M3426.06,2563.85c-44.16,0-78.29,35.83-78.29,80.03s34.12,80.03,78.29,80.03,79.96-35.32,79.96-80.03-35.8-80.03-79.96-80.03Z"/><path class="cls-1" d="M3411.96,960.84s56.55-386.7,59.97-400.16c6.4-25.16,20.86-119.7,21.02-160.06,.15-37.62-6.58-59.99-11.02-150.06-4.44-90.01,55.81-240.09,199.9-230.09,144.93,10,159.92,210.08,159.92,210.08,0,0,29.98,1110.43-19.99,1340.53-49.98,230.09-358.67,520.21-358.67,520.21v310.12h-1080.65l18.57-501.91c.92-24.76,10.41-48.43,26.87-66.95l277.61-312.59c10.77-12.13,25.81-19.65,41.97-21l94.75-7.9,239.89-428.09s84.96-232.17,249.88-172.15c163.5,59.5,43.63,246.82,41.55,250.06-.02,.03-.03,.06-.05,.1l-141.45,340.08"/><path class="cls-4" d="M3672.38,2401.29h-1469.57v580.23h1469.57v-580.23Z"/><path class="cls-3" d="M2937.59,977.75c0,148.29-120.21,268.5-268.5,268.5-12.87,0-25.5-.9-37.86-2.67H1231.43c-17.97,3.81-36.57,5.79-55.65,5.79-148.26,0-268.47-120.21-268.47-268.47,0-124.95,85.35-229.98,200.94-259.92-.48-6.51-.69-13.05-.69-19.68,0-160.71,130.29-291,291-291,84.27,0,160.17,35.82,213.3,93.09,41.16-191.73,211.85-325.72,415.65-335.46,208.73-9.97,387.12,132.81,418.61,356.9,28.71-21.09,101.09-35.35,143.42-21.25,74.29,24.76,136.94,92,136.94,187.73,0,8.07-.54,16.02-1.62,23.79,121.53,25.65,212.73,133.5,212.73,262.65Z"/><path class="cls-1" d="M638.63,1481.05l-141.47-340.14s-123.4-190.07,41.52-250.1c164.92-60.02,249.88,172.15,249.88,172.15l239.89,428.09,86.85,7.24c21.24,1.77,40.99,11.65,55.14,27.59l273.52,307.98c15.69,17.67,24.76,40.25,25.63,63.87l18.64,503.68H407.58v-310.12S98.89,1801.17,48.91,1571.08C-1.06,1340.99,28.92,230.56,28.92,230.56c0,0,14.99-200.08,159.92-210.08,144.09-10,204.35,140.08,199.9,230.09-4.44,90.07-11.17,112.44-11.02,150.06,.16,40.36,14.62,134.9,21.02,160.06,3.42,13.46,59.97,400.16,59.97,400.16"/></svg>