<?xml version="1.0" encoding="UTF-8"?><svg id="Layer_1" xmlns="http://www.w3.org/2000/svg" viewBox="0 0 3871.16 3157.5"><defs><style>.cls-1{fill:#fff;}.cls-2{stroke-width:100px;}.cls-2,.cls-3,.cls-4,.cls-5,.cls-6{stroke:#000;stroke-miterlimit:10;}.cls-2,.cls-4,.cls-6{fill:none;}.cls-3{fill-rule:evenodd;}.cls-3,.cls-6{stroke-width:40px;}.cls-4{stroke-width:14.17px;}.cls-5{stroke-width:64.8px;}</style></defs><g><path class="cls-6" d="M417.73,2649.34c83.04,0,150.36,68.99,150.36,150.36s-67.32,150.36-150.36,150.36-148.58-67.32-148.58-150.36,65.54-150.36,148.58-150.36h0Z"/><path class="cls-3" d="M418.62,2722.06c44.18,0,80,35.82,80,80s-35.82,80-80,80-80-35.82-80-80,35.82-80,80-80Z"/><path class="cls-6" d="M172.58,2557.5H1642.58v580H172.58v-580Z"/><path class="cls-6" d="M3427.26,2651.64c-83,0-150.29,67.35-150.29,150.42s67.28,150.42,150.29,150.42,150.29-67.34,150.29-150.42-66.5-150.42-150.29-150.42Z"/><path class="cls-3" d="M3426.42,2719.67c-44.16,0-78.29,35.83-78.29,80.03s34.12,80.03,78.29,80.03,79.96-35.32,79.96-80.03-35.8-80.03-79.96-80.03Z"/><path class="cls-6" d="M3412.44,1116.94s56.55-386.7,59.97-400.16c6.4-25.16,20.86-119.7,21.01-160.06,.15-37.62-6.58-59.99-11.02-150.06-4.44-90.01,55.81-240.09,199.91-230.09,144.93,10,159.92,210.08,159.92,210.08,0,0,29.99,1110.44-19.99,1340.53-49.98,230.09-358.67,520.21-358.67,520.21v310.12h-1080.65l18.57-501.91c.92-24.76,10.41-48.43,26.87-66.95l277.61-312.59c10.77-12.13,25.8-19.65,41.98-21l94.75-7.9,239.89-428.09s84.96-232.17,249.88-172.15c163.57,59.53,43.53,246.98,41.54,250.06l-.04,.09-141.45,340.09"/><path class="cls-6" d="M3672.58,2557.5h-1470v580h1470v-580Z"/><path class="cls-6" d="M638.63,1637.14l-141.47-340.14s-123.4-190.07,41.52-250.1c164.92-60.02,249.88,172.15,249.88,172.15l239.89,428.09,86.85,7.24c21.24,1.77,40.99,11.65,55.14,27.59l273.52,307.98c15.69,17.67,24.76,40.25,25.63,63.87l18.64,503.67H407.58v-310.12S98.89,1957.27,48.91,1727.18C-1.06,1497.08,28.92,386.65,28.92,386.65c0,0,14.99-200.08,159.92-210.08,144.09-10.01,204.35,140.08,199.9,230.09-4.44,90.07-11.17,112.44-11.02,150.06,.16,40.36,14.62,134.9,21.01,160.06,3.42,13.46,59.97,400.16,59.97,400.16"/></g><path class="cls-2" d="M1954.58,920.5l-3,822c-467.23,0-846.5-379.27-846.5-846.5S1483.85,50,1951.08,50s846,378.77,846,846c0,340.84-201.56,634.6-491.99,768.6"/><path class="cls-5" d="M2186.81,1121.61c-12.34,136.86-97.18,215.94-225.63,215.94s-232.37-92.79-232.58-218.98c-.02-11.63-.02-280.57-.02-280.57h459s.03,274.68-.77,283.61Z"/><polygon class="cls-1" points="2038.01 931.09 1962.1 1049.79 2054.42 1125.62 1853.37 1287.18 1931.33 1141.69 1853.37 1082.76 2038.01 931.09"/><rect class="cls-4" x="1728.58" y="529.5" width="125" height="251"/><rect class="cls-4" x="2062.58" y="529.5" width="125" height="251"/></svg>