<svg 
 xmlns="http://www.w3.org/2000/svg"
 xmlns:xlink="http://www.w3.org/1999/xlink"
 width="1315.5px" height="1078.5px">
<path fill-rule="evenodd"  stroke="rgb(0, 0, 0)" stroke-width="11.667px" stroke-linecap="square" stroke-linejoin="bevel" fill="none"
 d="M153.186,894.622 C180.866,894.622 203.306,917.62 203.306,944.743 C203.306,972.423 180.866,994.863 153.186,994.863 C125.506,994.863 103.66,972.423 103.66,944.743 C103.66,917.62 125.506,894.622 153.186,894.622 Z"/>
<path fill-rule="evenodd"  stroke="rgb(0, 0, 0)" stroke-width="11.667px" stroke-linecap="square" stroke-linejoin="bevel" fill="rgb(0, 0, 0)"
 d="M154.833,919.833 C169.560,919.833 181.499,931.772 181.499,946.499 C181.499,961.227 169.560,973.166 154.833,973.166 C140.105,973.166 128.166,961.227 128.166,946.499 C128.166,931.772 140.105,919.833 154.833,919.833 Z"/>
<path fill-rule="evenodd"  stroke="rgb(0, 0, 0)" stroke-width="11.667px" stroke-linecap="square" stroke-linejoin="miter" fill="none"
 d="M655.833,152.833 C655.833,152.833 571.583,-3.480 428.166,13.166 C340.174,23.380 248.166,103.166 291.499,269.833 C336.341,442.299 654.832,669.832 654.832,669.832 "/>
<path fill-rule="evenodd"  stroke="rgb(0, 0, 0)" stroke-width="11.667px" stroke-linecap="square" stroke-linejoin="round" fill="none"
 d="M218.166,556.500 L171.500,443.166 C171.500,443.166 129.833,379.833 184.833,359.833 C239.833,339.833 268.166,416.500 268.166,416.500 L348.166,559.833 C348.166,559.833 371.499,556.500 388.166,563.166 C404.833,569.833 486.499,654.833 494.833,683.166 C503.166,711.499 501.500,863.166 501.500,863.166 L141.499,863.166 L141.499,759.832 C141.499,759.832 38.166,663.166 21.499,586.499 C4.832,509.833 14.833,139.833 14.833,139.833 C14.833,139.833 19.833,73.166 68.166,69.832 C116.499,66.499 136.499,116.499 134.833,146.499 C133.166,176.499 131.500,196.499 131.500,196.499 C131.500,196.499 136.32,241.449 138.166,249.832 C139.307,254.318 158.166,383.166 158.166,383.166 "/>
<path fill-rule="evenodd"  stroke="rgb(0, 0, 0)" stroke-width="11.667px" stroke-linecap="square" stroke-linejoin="round" fill="none"
 d="M71.500,866.500 L561.500,866.500 L561.500,1059.833 L71.500,1059.833 L71.500,866.500 Z"/>
<path fill-rule="evenodd"  stroke="rgb(0, 0, 0)" stroke-width="11.667px" stroke-linecap="square" stroke-linejoin="bevel" fill="none"
 d="M1156.362,895.388 C1128.694,895.388 1106.266,917.837 1106.266,945.528 C1106.266,973.220 1128.694,995.668 1156.362,995.668 C1184.29,995.668 1206.458,973.220 1206.458,945.528 C1206.458,917.837 1184.29,895.388 1156.362,895.388 Z"/>
<path fill-rule="evenodd"  stroke="rgb(0, 0, 0)" stroke-width="11.667px" stroke-linecap="square" stroke-linejoin="bevel" fill="rgb(0, 0, 0)"
 d="M1154.716,920.609 C1139.995,920.609 1128.62,932.552 1128.62,947.286 C1128.62,962.19 1139.995,973.963 1154.716,973.963 C1169.437,973.963 1181.370,962.19 1181.370,947.286 C1181.370,932.552 1169.437,920.609 1154.716,920.609 Z"/>
<path fill-rule="evenodd"  stroke="rgb(0, 0, 0)" stroke-width="11.667px" stroke-linecap="square" stroke-linejoin="round" fill="none"
 d="M656.833,151.833 C656.833,151.833 738.164,-3.67 881.513,13.585 C969.463,23.803 1061.427,103.621 1018.114,270.353 C973.294,442.888 654.954,670.510 654.954,670.510 "/>
<path fill-rule="evenodd"  stroke="rgb(0, 0, 0)" stroke-width="11.667px" stroke-linecap="butt" stroke-linejoin="round" fill="none"
 d="M1091.413,557.133 L1138.57,443.754 C1138.57,443.754 1179.704,380.396 1124.730,360.388 C1069.756,340.381 1041.437,417.77 1041.437,417.77 L961.475,560.467 C961.475,560.467 938.153,557.133 921.494,563.802 C904.835,570.471 823.207,655.505 814.878,683.849 C806.549,712.193 808.214,863.919 808.214,863.919 L1168.43,863.919 L1168.43,760.546 C1168.43,760.546 1271.327,663.841 1287.986,587.144 C1304.644,510.447 1294.649,140.302 1294.649,140.302 C1294.649,140.302 1289.652,73.609 1241.341,70.275 C1193.31,66.940 1173.41,116.959 1174.706,146.971 C1176.372,176.983 1178.38,196.991 1178.38,196.991 C1178.38,196.991 1173.508,241.958 1171.375,250.345 C1170.234,254.832 1151.384,383.731 1151.384,383.731 "/>
<path fill-rule="evenodd"  stroke="rgb(0, 0, 0)" stroke-width="11.667px" stroke-linecap="square" stroke-linejoin="round" fill="none"
 d="M1238.10,867.255 L748.243,867.255 L748.243,1060.664 L1238.10,1060.664 L1238.10,867.255 Z"/>
</svg>