<?xml version="1.0" encoding="UTF-8"?><svg id="Layer_1" xmlns="http://www.w3.org/2000/svg" viewBox="0 0 1770.02 1871.08"><defs><style>.cls-1{fill:none;stroke:#000;stroke-miterlimit:10;stroke-width:20px;}</style></defs><path class="cls-1" d="M1625.01,1134.51v.5h-407.47c-20.32-80.33-68.94-149.38-134.63-195.93,32.02-40.97,51.1-92.54,51.1-148.57,0-66.54-26.91-126.79-70.43-170.47,34.51-91.2,122.64-156.03,225.93-156.03,133.38,0,241.5,108.12,241.5,241.5,0,56.03-19.08,107.6-51.1,148.57,87.8,62.21,145.1,164.63,145.1,280.43Z"/><path class="cls-1" d="M651.01,790.51c0,52.79,16.94,101.62,45.67,141.36-70.76,46.29-123.39,117.99-144.94,202.14H156.01v-.5c0-120.39,61.93-226.31,155.67-287.64-28.73-39.74-45.67-88.57-45.67-141.36,0-133.38,108.12-241.5,241.5-241.5,100.4,0,186.49,61.27,222.92,148.46-48.78,44.19-79.42,108.04-79.42,179.04Z"/><path class="cls-1" d="M1228.01,1219.51v.5H541.01v-.5c0-29.52,3.72-58.17,10.73-85.5,21.55-84.15,74.18-155.85,144.94-202.14-28.73-39.74-45.67-88.57-45.67-141.36,0-71,30.64-134.85,79.42-179.04,42.86-38.81,99.7-62.46,162.08-62.46,66.84,0,127.34,27.15,171.07,71.03,43.52,43.68,70.43,103.93,70.43,170.47,0,56.03-19.08,107.6-51.1,148.57,65.69,46.55,114.31,115.6,134.63,195.93,6.84,27.03,10.47,55.34,10.47,84.5Z"/><path class="cls-1" d="M1533.07,1472.92c-145.84,160.77-337.82,254.75-537.49,280.09-1.64-25.38-12.76-50.17-33.08-68.61-41.52-37.67-105.71-34.54-143.38,6.98-16.59,18.29-25.26,40.96-26.23,63.83-178.43-18.74-352.73-92.35-495.79-222.14C-42.45,1225.05-84.11,711.21,189.73,353.7c41.53,37.12,105.29,33.84,142.79-7.49,19.23-21.2,27.83-48.3,26.1-74.76-1.5-23.16-10.87-45.82-27.93-63.61C653.17-56.81,1125.99-58.35,1451.05,217.76c-1.32,1.31-2.61,2.66-3.88,4.05-16.59,18.29-25.26,40.96-26.23,63.83-1.24,29.08,9.97,58.47,33.21,79.55,38.76,35.15,97.26,34.77,135.51,.8,242.5,328.48,228.28,792.93-56.59,1106.93Z"/><path class="cls-1" d="M819.12,1691.38c37.67-41.52,101.85-44.64,143.37-6.98,20.32,18.44,31.44,43.23,33.08,68.61,1.73,26.46-6.87,53.56-26.1,74.76-37.67,41.52-101.85,44.64-143.37,6.98-23.23-21.08-34.45-50.46-33.21-79.54,.97-22.87,9.64-45.54,26.23-63.83Z"/><path class="cls-1" d="M332.52,346.21c-37.5,41.33-101.26,44.61-142.79,7.49-.2-.16-.39-.34-.58-.51-23.24-21.08-34.45-50.47-33.21-79.55,.97-22.87,9.64-45.54,26.23-63.83,37.67-41.52,101.85-44.64,143.37-6.98,1.79,1.62,3.5,3.29,5.15,5.01,17.06,17.79,26.43,40.45,27.93,63.61,1.73,26.46-6.87,53.56-26.1,74.76Z"/><path class="cls-1" d="M1597.52,358.21c-2.51,2.76-5.13,5.36-7.86,7.78-38.25,33.97-96.75,34.35-135.51-.8-23.24-21.08-34.45-50.47-33.21-79.55,.97-22.87,9.64-45.54,26.23-63.83,1.27-1.39,2.56-2.74,3.88-4.05,38.07-37.63,99.36-39.33,139.49-2.93,20.33,18.44,31.44,43.23,33.08,68.62,1.73,26.46-6.87,53.56-26.1,74.76Z"/></svg>